<svg width="40" height="41" viewBox="0 0 40 41" fill="none" xmlns="http://www.w3.org/2000/svg">
<path d="M0 20.0125C0 8.96682 8.95431 0.0125122 20 0.0125122C31.0457 0.0125122 40 8.96682 40 20.0125C40 31.0582 31.0457 40.0125 20 40.0125C8.95431 40.0125 0 31.0582 0 20.0125Z" fill="white"/>
<path d="M13 20.0125H27" stroke="#4A3730" stroke-width="2" stroke-linecap="round" stroke-linejoin="round"/>
<path d="M20 13.0125L27 20.0125L20 27.0125" stroke="#4A3730" stroke-width="2" stroke-linecap="round" stroke-linejoin="round"/>
<path d="M20 38.0125C10.0589 38.0125 2 29.9536 2 20.0125H-2C-2 32.1628 7.84974 42.0125 20 42.0125V38.0125ZM38 20.0125C38 29.9536 29.9411 38.0125 20 38.0125V42.0125C32.1503 42.0125 42 32.1628 42 20.0125H38ZM20 2.01251C29.9411 2.01251 38 10.0714 38 20.0125H42C42 7.86225 32.1503 -1.98749 20 -1.98749V2.01251ZM20 -1.98749C7.84974 -1.98749 -2 7.86225 -2 20.0125H2C2 10.0714 10.0589 2.01251 20 2.01251V-1.98749Z" fill="#4A3730"/>
</svg>
